<svg width="215" height="185" viewBox="0 0 215 185" fill="none" xmlns="http://www.w3.org/2000/svg">
<path d="M179.467 108.888C179.436 124.452 173.585 139.442 163.062 150.911C152.54 162.38 138.108 169.497 122.604 170.865C107.1 172.232 91.6448 167.75 79.2776 158.3C66.9103 148.85 58.5254 135.116 55.7711 119.797C53.0169 104.479 56.0926 88.6836 64.3936 75.5177C72.6946 62.3517 85.6204 52.7672 100.63 48.6483C115.639 44.5295 131.647 46.1743 145.505 53.2593C159.363 60.3444 170.07 72.3572 175.52 86.9361C175.656 87.3022 175.789 87.6683 175.918 88.0379V88.0414C176.493 89.6661 177 91.3211 177.438 93.0064C178.789 98.192 179.471 103.529 179.467 108.888Z" fill="#3F3D56" fill-opacity="0.4"/>
<path d="M109.842 66.5466C107.022 65.0214 103.89 64.1604 100.687 64.0293C97.483 63.8982 94.2916 64.5005 91.3561 65.7902C88.7714 66.9151 86.0498 68.933 85.1875 72.5769C88.6748 70.5188 93.189 73.7706 94.0864 78.9871L93.8769 79.0448C93.4029 82.658 94.461 86.5918 96.5095 88.8322C96.6618 87.8212 97.0373 86.857 97.6089 86.0093C98.1804 85.1617 98.9335 84.452 99.8136 83.9318C101.319 82.9424 102.984 82.2237 104.132 80.5231C105.494 78.507 105.84 75.5605 106.381 72.8725C106.922 70.1846 107.948 67.2955 109.842 66.5466Z" fill="#FF0004" fill-opacity="0.4"/>
<path d="M90.3206 97.2935C89.3548 98.7439 88.0647 99.654 86.9072 100.787C85.5708 102.003 84.6941 103.642 84.4247 105.428C84.2782 106.69 84.5048 107.973 84.4734 109.249C84.4421 110.525 84.0167 111.962 83.1485 112.279C81.7782 112.774 80.7322 110.229 79.3237 110.051C78.2044 109.912 77.1968 111.672 77.521 113.2C77.8453 114.727 79.369 115.403 80.2441 114.406C81.0356 115.734 80.4777 118.144 79.2888 118.552C79.1632 119.388 79.0377 120.222 78.9157 121.059C75.9102 118.956 72.8733 116.819 70.3176 113.74C67.4752 110.345 65.7122 106.178 65.2549 101.774C64.9237 98.2349 65.4153 94.1868 63.7906 91.4638C62.49 89.2846 60.2585 88.8034 58.2502 88.9394C57.8841 88.9638 57.5146 89.0056 57.1484 89.051C58.3328 85.4937 59.8371 82.0511 61.6427 78.7653C62.0513 78.5899 62.431 78.3536 62.7689 78.0644C64.6377 76.478 65.4676 73.2668 66.9842 71.0458C67.0819 70.9028 67.183 70.7633 67.2876 70.6274C68.8392 68.6016 70.9172 67.5591 72.9255 66.5898C77.371 64.4316 81.9455 62.2454 86.6386 62.5453L85.3032 62.6743C83.7447 67.0396 82.185 71.4049 80.6241 75.7703C80.387 76.4396 80.1476 77.1102 79.9058 77.782C79.0202 80.2645 78.1067 82.9075 78.2427 85.6863C78.3229 87.332 78.8947 89.0893 79.9825 89.6542C80.9972 90.1772 82.1059 89.5356 83.0856 88.901C83.5006 88.636 83.912 88.371 84.3269 88.1025C85.8157 87.1437 87.4649 86.1605 89.0373 86.802C90.4773 87.3877 91.5408 89.3438 91.743 91.4532C91.9285 93.5038 91.4282 95.5579 90.3206 97.2935Z" fill="#FF0004" fill-opacity="0.4"/>
<path d="M99.1759 127.095C94.8277 124.418 90.4794 121.74 86.1312 119.063L86.205 118.873C83.5015 119.903 82.379 124.708 82.8258 128.638C83.2727 132.568 84.7876 136.082 85.553 139.911C86.5849 145.151 86.1955 150.572 84.4249 155.611C90.1426 149.195 95.2026 142.223 99.5292 134.798C100.134 133.862 100.594 132.841 100.895 131.768C101.215 130.625 101.101 129.405 100.576 128.341C100.22 127.815 99.7389 127.387 99.1759 127.095Z" fill="#FF0004" fill-opacity="0.4"/>
<path d="M82.0139 78.389C81.5034 79.4853 81.4247 80.7338 81.7936 81.8855C82.2227 82.8135 83.001 83.5343 83.959 83.8911L86.3616 85.082C87.1609 85.4782 88.0224 85.8784 88.8372 85.5524C89.82 85.1592 90.5014 83.6185 90.3251 82.1881C90.1375 80.666 89.1781 79.6191 88.2908 78.7275C87.049 77.4798 85.8072 76.2321 84.5655 74.9844L83.8657 75.8415C83.1088 76.5798 82.4826 77.4412 82.0139 78.389Z" fill="#FF0004" fill-opacity="0.4"/>
<path d="M166.589 94.6611C167.67 94.9156 168.75 95.1701 169.831 95.4246C169.643 99.0752 167.833 102.454 165.407 103.678C164.396 104.187 163.269 104.375 162.433 105.327C161.676 106.191 161.292 107.537 160.94 108.824C160.323 111.069 159.706 113.315 159.089 115.56C158.426 117.98 157.576 120.668 155.853 121.54C154.375 122.289 152.684 121.372 151.547 119.835C150.411 118.297 149.717 116.23 149.044 114.214C149.086 116.411 148.064 118.566 146.617 119.329C145.167 120.093 143.402 119.402 142.433 117.697C141.736 116.474 141.446 114.859 140.763 113.618C140.08 112.377 138.647 111.666 137.9 112.83C137.409 113.604 137.472 114.79 137.227 115.773C137.105 116.426 136.781 117.024 136.303 117.484C135.824 117.945 135.214 118.245 134.557 118.343C133.953 118.329 133.358 118.192 132.808 117.941C132.258 117.69 131.765 117.329 131.359 116.882C129.224 114.697 127.834 111.894 127.388 108.873C127.086 107.424 127.124 105.925 127.5 104.493C127.929 103.137 128.964 102.091 129.993 102.349C130.669 100.92 129.334 99.0229 128.131 99.1903C126.924 99.3576 125.979 100.651 124.989 101.645C124.003 102.639 122.622 103.36 121.628 102.374C121.65 102.734 121.528 103.089 121.289 103.36C121.049 103.631 120.712 103.796 120.351 103.818C120.315 103.82 120.28 103.821 120.244 103.821C119.583 103.631 118.969 103.306 118.441 102.865C116.165 101.446 113.274 102.388 111.656 105.072C112.667 100.77 114.149 95.8326 117.256 94.8214C118.525 94.4065 119.909 94.7482 121.109 94.0299C123.232 92.7573 123.661 87.9492 121.827 85.9653C122.06 87.8411 122.015 90.0307 121.025 91.3139C120.035 92.597 117.957 91.7601 118.082 89.8634C118.054 90.1302 117.942 90.3812 117.763 90.5805C117.583 90.7797 117.345 90.9171 117.083 90.9728C116.82 91.0285 116.547 90.9998 116.302 90.8907C116.057 90.7816 115.852 90.5978 115.718 90.3655C115.059 89.3613 115.115 87.7191 115.582 86.5197C116.064 85.4334 116.755 84.4524 117.615 83.6328C119.271 81.8581 120.952 80.0624 122.869 78.9467C124.791 77.8309 127.008 77.4544 128.933 78.5631C129.947 79.1489 130.84 80.1252 131.875 80.6412C132.119 80.7922 132.39 80.8938 132.672 80.9401C132.955 80.9865 133.244 80.9768 133.523 80.9115C133.801 80.8462 134.065 80.7266 134.297 80.5596C134.53 80.3925 134.727 80.1813 134.878 79.938C134.89 79.9192 134.901 79.9002 134.912 79.8811C135.683 78.5282 135.32 76.5199 135.606 74.8289C136.119 71.8409 139.107 70.4427 140.763 72.4161C139.525 72.0989 138.246 73.5632 138.092 75.338C137.935 77.1127 138.831 78.9048 140.031 79.4418C142.046 80.3343 144.02 78.0889 145.543 76.0109C147.133 73.8352 148.725 71.6607 150.32 69.4874C150.575 69.1173 150.86 68.7697 151.174 68.4483C151.674 67.9615 152.339 67.6828 153.037 67.6685C153.734 67.6543 154.41 67.9057 154.929 68.3716C156.54 69.6861 157.297 72.3813 158.618 74.2362C160.536 76.9314 163.405 77.5869 166.076 78.1099C168.067 78.4969 170.059 78.8862 172.052 79.2779C173.381 81.7497 174.54 84.3091 175.522 86.9381C171.866 88.6049 168.766 91.2852 166.589 94.6611Z" fill="#FF0004" fill-opacity="0.4"/>
<path d="M173.027 136.612C171.533 139.645 169.795 142.552 167.831 145.304C166.576 144.768 165.227 145.726 164.052 146.626C162.825 147.567 161.35 148.484 160.091 147.627C158.804 146.748 158.389 144.29 158.797 142.341C159.266 140.543 160.086 138.855 161.21 137.376C162.256 135.814 163.375 134.192 164.829 133.586C166.287 132.979 168.159 133.837 168.585 135.908L169.617 135.873C169.038 135.078 169.341 133.432 170.119 133.143C171.015 132.805 171.792 134.036 172.322 135.123C172.559 135.615 172.8 136.11 173.027 136.612Z" fill="#FF0004" fill-opacity="0.4"/>
<path d="M133.497 121.884C131.279 122.024 129.522 119.293 128.354 116.606C127.186 113.92 126.121 110.847 124.119 109.48C122.976 108.699 121.672 108.591 120.431 108.213C119.728 108.035 119.076 107.692 118.532 107.213C117.987 106.733 117.565 106.131 117.299 105.455L115.892 104.887C113.924 105.871 112.121 107.156 110.549 108.696C108.753 110.604 107.635 113.05 107.366 115.656C107.097 118.473 108.09 121.613 109.944 122.671C111.41 123.508 113.116 122.981 114.601 123.746C116.455 124.702 117.556 127.48 117.973 130.223C118.39 132.966 118.284 135.816 118.583 138.59C118.881 141.364 119.703 144.25 121.404 145.672C123.532 147.451 126.655 145.972 127.61 142.734C128.079 141.146 128.063 139.354 128.413 137.705C129.03 134.801 130.695 132.647 132.015 130.265C133.336 127.883 134.375 124.648 133.497 121.884Z" fill="#FF0004" fill-opacity="0.4"/>
<path d="M111.579 93.3518C111.786 93.5422 111.979 93.7472 112.156 93.965C112.34 94.2822 112.434 94.6436 112.428 95.0103C112.422 95.3769 112.316 95.7349 112.121 96.0456C112.388 96.0304 112.649 95.9599 112.888 95.8387C113.126 95.7174 113.337 95.548 113.507 95.3411C113.912 94.88 114.268 94.3783 114.57 93.8439C114.712 93.661 114.813 93.4499 114.867 93.2247C114.921 92.9995 114.927 92.7654 114.883 92.538C114.778 92.2389 114.531 92.1113 114.357 91.8864C114.116 91.4467 113.952 90.9692 113.871 90.4744C113.774 90.0106 113.551 89.5829 113.225 89.2393C112.899 88.8957 112.483 88.6498 112.025 88.5293L112.136 88.5506C111.947 88.6628 111.798 88.8315 111.709 89.033C111.621 89.2344 111.597 89.4585 111.642 89.6738C111.71 90.1089 111.989 90.4702 111.961 90.9139C111.921 91.552 111.284 91.8515 111.244 92.4896C111.238 92.8098 111.358 93.1195 111.579 93.3518Z" fill="#FF0004" fill-opacity="0.4"/>
<path d="M107.775 82.5092L107.785 82.5073C107.854 82.4448 107.917 82.377 107.975 82.3047L107.775 82.5092Z" fill="#FF0004" fill-opacity="0.4"/>
<path d="M108.443 85.5056C108.709 85.2718 108.906 84.9693 109.012 84.6311C109.119 84.2929 109.13 83.932 109.045 83.5879C108.884 82.8623 108.313 82.3745 107.787 82.5085C107.635 82.6632 107.445 82.7766 107.237 82.838C107.028 82.8994 106.808 82.9067 106.595 82.8594C106.27 82.7756 105.913 82.56 105.631 82.8051C105.47 82.9881 105.357 83.2086 105.302 83.4465C105.198 83.7671 105.094 84.0876 104.989 84.408C104.94 84.5228 104.927 84.65 104.952 84.7724C104.972 84.8214 105.004 84.8645 105.046 84.8975C105.087 84.9304 105.137 84.9521 105.189 84.9606L107.068 85.5146C107.284 85.614 107.519 85.6647 107.756 85.6632C107.994 85.6616 108.228 85.6078 108.443 85.5056Z" fill="#FF0004" fill-opacity="0.4"/>
<path d="M155.735 126.856C155.445 126.382 155.156 125.908 154.866 125.434C154.582 124.885 154.193 124.397 153.721 123.997C153.515 123.824 153.249 123.74 152.981 123.764C152.713 123.787 152.465 123.917 152.293 124.123L152.277 124.141L152.313 124.412C153.088 125.243 153.616 126.274 153.838 127.389C153.904 127.874 153.882 128.375 153.939 128.862C153.946 129.087 153.996 129.31 154.088 129.516C154.18 129.722 154.312 129.908 154.476 130.063C154.932 130.368 155.467 129.918 155.792 129.37C156.082 128.92 156.212 128.386 156.161 127.852C156.089 127.495 155.944 127.156 155.735 126.856Z" fill="#FF0004" fill-opacity="0.4"/>
<path d="M160.278 127.473C160.333 127.029 160.297 126.578 160.172 126.149C160.152 125.568 160.306 124.994 160.614 124.502C160.921 124.037 161.154 123.527 161.303 122.991C161.367 122.747 161.355 122.489 161.27 122.251C161.175 122.036 160.942 121.938 160.809 122.108L161.094 122.292C160.709 122.223 160.314 122.242 159.938 122.348C159.723 122.43 159.531 122.563 159.379 122.735C159.226 122.907 159.117 123.113 159.061 123.336C159.014 123.684 158.937 124.027 158.831 124.361C158.661 124.711 158.332 124.827 158.125 125.134C157.984 125.405 157.913 125.708 157.918 126.014C157.923 126.321 158.004 126.621 158.154 126.888C158.414 127.325 158.827 127.649 159.313 127.799C159.661 127.924 160.119 127.93 160.278 127.473Z" fill="#FF0004" fill-opacity="0.4"/>
<path d="M168.368 129.914C168.494 130.241 168.663 130.55 168.869 130.834C169.257 131.224 169.783 130.984 170.253 130.889C170.679 130.822 171.116 130.871 171.517 131.032C171.917 131.192 172.267 131.459 172.529 131.802C172.346 130.893 171.949 130.041 171.369 129.318C170.789 128.595 170.045 128.021 169.197 127.646C168.096 127.265 166.936 127.083 165.771 127.11L165.572 127.161C166.079 128.637 167.671 128.604 168.368 129.914Z" fill="#FF0004" fill-opacity="0.4"/>
<path d="M134.104 132.934L134.106 132.94L134.165 132.828L134.104 132.934Z" fill="#FF0004" fill-opacity="0.4"/>
<path d="M132.875 135.307C132.608 135.792 132.377 136.298 132.187 136.819C131.934 137.663 131.767 138.53 131.688 139.407C131.625 139.906 131.606 140.543 131.919 140.786C132.008 140.845 132.117 140.87 132.223 140.856C132.33 140.841 132.428 140.788 132.498 140.707C132.672 140.523 132.814 140.312 132.919 140.082C133.533 139.025 134.01 137.893 134.338 136.714C134.68 135.464 134.598 134.136 134.105 132.938C133.695 133.727 133.285 134.517 132.875 135.307Z" fill="#FF0004" fill-opacity="0.4"/>
<path d="M121.036 72.019C121.231 72.2096 121.478 72.3389 121.745 72.3911C122.013 72.4434 122.29 72.4162 122.542 72.3129C123.065 72.0845 123.544 71.7679 123.959 71.377C124.303 71.1227 124.594 70.8046 124.818 70.4401C124.941 70.2223 125.02 69.9823 125.05 69.7338C125.08 69.4854 125.061 69.2335 124.994 68.9925C124.898 68.7617 124.744 68.5591 124.548 68.404C124.352 68.2488 124.12 68.1463 123.873 68.106C123.177 67.8998 122.482 67.6936 121.787 67.4874L122.29 67.034C121.772 66.7563 121.2 67.2718 120.876 67.91C120.669 68.3267 120.524 68.7718 120.447 69.2309C120.337 69.7105 120.333 70.2084 120.435 70.6899C120.536 71.1713 120.742 71.6249 121.036 72.019Z" fill="#FF0004" fill-opacity="0.4"/>
<path d="M133.315 67.898C133.511 68.114 133.782 68.2474 134.073 68.2711C134.363 68.2947 134.652 68.2069 134.881 68.0253C135.077 67.8777 135.24 67.6904 135.36 67.4755C135.479 67.2606 135.552 67.023 135.573 66.7781C135.622 66.2311 135.352 65.6232 134.966 65.576L135.054 65.0639C134.31 64.9295 133.394 64.9026 132.996 65.8062C132.861 66.1523 132.82 66.5277 132.876 66.8947C132.932 67.2618 133.083 67.6078 133.315 67.898Z" fill="#FF0004" fill-opacity="0.4"/>
<path d="M167.55 181.809C169.766 181.219 171.229 179.491 170.819 177.949C170.408 176.407 168.279 175.636 166.063 176.226C163.847 176.817 162.384 178.545 162.794 180.086C163.205 181.628 165.334 182.399 167.55 181.809Z" fill="#F2F2F2"/>
<path d="M140.409 182.309C142.625 181.719 144.089 179.99 143.678 178.449C143.268 176.907 141.138 176.136 138.922 176.726C136.707 177.317 135.243 179.045 135.653 180.586C136.064 182.128 138.193 182.899 140.409 182.309Z" fill="#F2F2F2"/>
<path d="M172.372 159.225C174.588 158.635 176.051 156.907 175.641 155.365C175.23 153.823 173.101 153.052 170.885 153.642C168.669 154.233 167.206 155.961 167.616 157.502C168.027 159.044 170.156 159.815 172.372 159.225Z" fill="#F2F2F2"/>
<path d="M180.377 149.626C181.378 149.502 182.044 148.236 181.866 146.798C181.688 145.359 180.732 144.294 179.732 144.418C178.731 144.542 178.064 145.809 178.243 147.247C178.421 148.685 179.377 149.75 180.377 149.626Z" fill="#F2F2F2"/>
<path d="M182.405 132.589C183.405 132.465 184.072 131.199 183.893 129.76C183.715 128.322 182.759 127.257 181.759 127.381C180.758 127.505 180.092 128.771 180.27 130.21C180.448 131.648 181.404 132.713 182.405 132.589Z" fill="#F2F2F2"/>
<path d="M155.045 165.341C156.046 165.217 156.712 163.951 156.534 162.512C156.356 161.074 155.4 160.009 154.399 160.133C153.399 160.257 152.732 161.523 152.911 162.962C153.089 164.4 154.045 165.465 155.045 165.341Z" fill="#F2F2F2"/>
<path d="M168.766 170.306C169.767 170.182 170.433 168.916 170.255 167.477C170.076 166.039 169.121 164.974 168.12 165.098C167.12 165.222 166.453 166.488 166.631 167.926C166.81 169.365 167.765 170.43 168.766 170.306Z" fill="#F2F2F2"/>
<path d="M152.106 184.374C153.106 184.25 153.773 182.984 153.595 181.546C153.416 180.107 152.461 179.042 151.46 179.166C150.46 179.29 149.793 180.557 149.971 181.995C150.15 183.433 151.105 184.498 152.106 184.374Z" fill="#F2F2F2"/>
<path d="M32.6415 159.014C34.8574 158.424 36.321 156.696 35.9105 155.154C35.4999 153.613 33.3708 152.841 31.1549 153.431C28.9389 154.022 27.4754 155.75 27.8859 157.291C28.2964 158.833 30.4256 159.604 32.6415 159.014Z" fill="#F2F2F2"/>
<path d="M5.49894 159.518C7.71487 158.928 9.17845 157.199 8.76792 155.658C8.35739 154.116 6.2282 153.345 4.01228 153.935C1.79635 154.526 0.332802 156.254 0.743332 157.795C1.15386 159.337 3.28302 160.108 5.49894 159.518Z" fill="#F2F2F2"/>
<path d="M37.4619 136.432C39.6778 135.842 41.1414 134.114 40.7308 132.572C40.3203 131.031 38.1911 130.259 35.9752 130.849C33.7592 131.44 32.2957 133.168 32.7062 134.709C33.1168 136.251 35.2459 137.022 37.4619 136.432Z" fill="#F2F2F2"/>
<path d="M45.4671 126.833C46.4677 126.709 47.1342 125.443 46.9559 124.005C46.7776 122.566 45.8219 121.501 44.8214 121.625C43.8208 121.749 43.1543 123.016 43.3326 124.454C43.511 125.892 44.4666 126.957 45.4671 126.833Z" fill="#F2F2F2"/>
<path d="M47.4945 109.798C48.495 109.674 49.1616 108.408 48.9832 106.969C48.8049 105.531 47.8492 104.466 46.8487 104.59C45.8482 104.714 45.1817 105.98 45.36 107.419C45.5383 108.857 46.4939 109.922 47.4945 109.798Z" fill="#F2F2F2"/>
<path d="M20.1351 142.546C21.1357 142.422 21.8022 141.156 21.6239 139.717C21.4456 138.279 20.4899 137.214 19.4894 137.338C18.4888 137.462 17.8223 138.728 18.0006 140.167C18.1789 141.605 19.1346 142.67 20.1351 142.546Z" fill="#F2F2F2"/>
<path d="M33.8558 147.515C34.8564 147.391 35.5229 146.124 35.3446 144.686C35.1662 143.248 34.2106 142.183 33.2101 142.307C32.2095 142.431 31.543 143.697 31.7213 145.135C31.8996 146.574 32.8553 147.639 33.8558 147.515Z" fill="#F2F2F2"/>
<path d="M17.1956 161.583C18.1962 161.459 18.8627 160.193 18.6844 158.755C18.5061 157.316 17.5504 156.251 16.5499 156.375C15.5494 156.499 14.8828 157.766 15.0612 159.204C15.2395 160.642 16.1951 161.707 17.1956 161.583Z" fill="#F2F2F2"/>
<path d="M197.54 54.6505C199.756 54.0604 201.219 52.3323 200.809 50.7908C200.398 49.2493 198.269 48.478 196.053 49.0682C193.837 49.6583 192.374 51.3864 192.784 52.9279C193.195 54.4694 195.324 55.2406 197.54 54.6505Z" fill="#F2F2F2"/>
<path d="M170.397 55.1544C172.613 54.5642 174.077 52.8362 173.666 51.2947C173.256 49.7532 171.127 48.9819 168.911 49.5721C166.695 50.1622 165.231 51.8903 165.642 53.4318C166.052 54.9733 168.181 55.7445 170.397 55.1544Z" fill="#F2F2F2"/>
<path d="M202.36 32.0665C204.576 31.4763 206.04 29.7483 205.629 28.2068C205.219 26.6653 203.09 25.894 200.874 26.4842C198.658 27.0743 197.194 28.8024 197.605 30.3439C198.015 31.8854 200.144 32.6566 202.36 32.0665Z" fill="#F2F2F2"/>
<path d="M210.366 22.4701C211.366 22.3461 212.033 21.0796 211.854 19.6413C211.676 18.2031 210.72 17.1377 209.72 17.2617C208.719 17.3858 208.053 18.6523 208.231 20.0905C208.409 21.5288 209.365 22.5942 210.366 22.4701Z" fill="#F2F2F2"/>
<path d="M212.393 5.43303C213.393 5.30898 214.06 4.04247 213.882 2.6042C213.703 1.16593 212.748 0.100554 211.747 0.224604C210.747 0.348654 210.08 1.61516 210.258 3.05343C210.437 4.49169 211.392 5.55708 212.393 5.43303Z" fill="#F2F2F2"/>
<path d="M185.034 38.185C186.034 38.0609 186.701 36.7944 186.522 35.3562C186.344 33.9179 185.388 32.8525 184.388 32.9766C183.387 33.1006 182.721 34.3671 182.899 35.8054C183.077 37.2437 184.033 38.309 185.034 38.185Z" fill="#F2F2F2"/>
<path d="M198.754 43.1518C199.755 43.0277 200.421 41.7612 200.243 40.323C200.065 38.8847 199.109 37.8193 198.108 37.9434C197.108 38.0674 196.441 39.3339 196.62 40.7722C196.798 42.2104 197.754 43.2758 198.754 43.1518Z" fill="#F2F2F2"/>
<path d="M182.092 57.2182C183.093 57.0941 183.759 55.8276 183.581 54.3893C183.403 52.9511 182.447 51.8857 181.446 52.0098C180.446 52.1338 179.779 53.4003 179.958 54.8386C180.136 56.2768 181.092 57.3422 182.092 57.2182Z" fill="#F2F2F2"/>
<path d="M24.4844 162.876C20.0438 162.876 17.1569 161.773 15.8792 159.579C13.3594 155.254 17.5795 147.664 28.422 137.021L29.3328 137.948C19.2613 147.835 14.8822 155.284 17.0024 158.925C18.3441 161.227 22.3369 162.052 28.5517 161.31C34.7212 160.574 42.8973 158.378 52.8529 154.785C73.3486 147.389 99.0625 134.912 125.258 119.653C151.452 104.394 174.99 88.1812 191.535 74.001C194.713 71.2769 197.598 68.6562 200.108 66.2124C203.403 63.0826 206.443 59.6946 209.198 56.0808C212.91 51.0417 214.162 47.1611 212.821 44.8582C210.58 41.0121 201.168 41.3737 186.316 45.878L185.939 44.6337C201.873 39.8018 211.296 39.6569 213.944 44.2039C215.59 47.029 214.345 51.2845 210.245 56.8519C207.448 60.523 204.361 63.9647 201.015 67.144C198.485 69.607 195.58 72.2461 192.382 74.9883C175.778 89.2181 152.173 105.479 125.912 120.776C99.6512 136.073 73.8615 148.586 53.2944 156.009C43.2461 159.635 34.9733 161.853 28.7058 162.601C27.3053 162.776 25.8957 162.868 24.4844 162.876Z" fill="#3F3D56" fill-opacity="0.2"/>
</svg>
