<svg width="129" height="117" viewBox="0 0 129 117" fill="none" xmlns="http://www.w3.org/2000/svg">
<path d="M103.636 10.099L2.87305 39.4941L5.54196 48.666L106.305 19.2708L103.636 10.099Z" fill="#3F3D56" fill-opacity="0.4"/>
<path d="M14.9108 81.622L0.0592474 30.584C-0.0508582 30.2056 -0.00632369 29.7989 0.183047 29.4534C0.372418 29.1078 0.691114 28.8518 1.06903 28.7416L99.3888 0.0590077C99.7667 -0.0508667 100.173 -0.00612483 100.518 0.183417C100.863 0.37296 101.119 0.691814 101.229 1.06999L114.386 46.286L113.979 46.4048L100.822 1.18878C100.743 0.91877 100.56 0.691145 100.314 0.555779C100.067 0.420412 99.7774 0.388339 99.5074 0.46659L1.18765 29.1491C0.917707 29.2279 0.690067 29.4108 0.554803 29.6576C0.419538 29.9044 0.387727 30.1949 0.46637 30.4652L15.318 81.5032L14.9108 81.622Z" fill="#3F3D56" fill-opacity="0.4"/>
<path d="M92.6252 46.4977C92.3269 46.4974 92.0368 46.4004 91.7981 46.2212C91.5595 46.042 91.3853 45.7902 91.3015 45.5035L88.8105 36.9432C88.7087 36.5919 88.7502 36.2144 88.926 35.8937C89.1018 35.573 89.3974 35.3352 89.7481 35.2324L98.2977 32.7383C98.6486 32.6364 99.0256 32.678 99.3459 32.854C99.6662 33.03 99.9037 33.3261 100.006 33.6772L102.497 42.2376C102.599 42.5889 102.558 42.9664 102.382 43.2871C102.206 43.6078 101.91 43.8456 101.56 43.9484L93.0101 46.4425C92.8851 46.4791 92.7555 46.4977 92.6252 46.4977Z" fill="#FF0004" fill-opacity="0.4"/>
<path d="M14.6812 30.7423C14.6556 30.6543 14.6252 30.5678 14.59 30.4833C14.351 29.9023 13.9059 29.4304 13.3404 29.158C12.775 28.8857 12.1289 28.8322 11.5264 29.0078C10.9239 29.1834 10.4075 29.5758 10.0764 30.1095C9.74528 30.6432 9.62283 31.2806 9.73258 31.8993C9.748 31.9895 9.76853 32.0788 9.79407 32.1668C9.9489 32.6959 10.2708 33.1606 10.7115 33.4913C11.1522 33.8219 11.688 34.0007 12.2387 34.001C12.4791 34.0015 12.7184 33.9672 12.949 33.8991C13.5963 33.7097 14.1421 33.271 14.4669 32.6792C14.7916 32.0874 14.8687 31.3909 14.6812 30.7423ZM12.8302 33.4915C12.2904 33.6483 11.7105 33.5844 11.2176 33.3138C10.7248 33.0432 10.3592 32.588 10.2011 32.0479C10.1763 31.9599 10.1565 31.8706 10.1417 31.7804C10.0622 31.2707 10.1708 30.7494 10.4472 30.3141C10.7237 29.8788 11.149 29.5592 11.6437 29.4151C12.1384 29.2709 12.6686 29.3122 13.1352 29.531C13.6017 29.7499 13.9727 30.1314 14.1787 30.6043C14.2171 30.6873 14.249 30.7732 14.2741 30.8611C14.4306 31.4017 14.3664 31.9822 14.0957 32.4754C13.825 32.9686 13.3698 33.334 12.8302 33.4915Z" fill="#FF0004" fill-opacity="0.4"/>
<path d="M8.44219 32.5624C8.30651 32.0958 8.31954 31.5985 8.47948 31.1397C8.63941 30.6809 8.93829 30.2835 9.33447 30.0028C8.9633 29.9847 8.59317 30.0556 8.25493 30.2097C7.91669 30.3638 7.62013 30.5967 7.38995 30.8888C7.15977 31.1809 7.00263 31.5238 6.93163 31.8891C6.86063 32.2543 6.87783 32.6312 6.98178 32.9884C7.08573 33.3457 7.27343 33.6729 7.52924 33.9428C7.78505 34.2126 8.10158 34.4174 8.45244 34.54C8.8033 34.6626 9.17833 34.6995 9.54631 34.6476C9.91429 34.5957 10.2646 34.4565 10.5679 34.2416C10.0832 34.2179 9.61787 34.0434 9.23684 33.7424C8.85581 33.4414 8.57803 33.0289 8.44219 32.5624Z" fill="#FF0004" fill-opacity="0.4"/>
<path d="M74.3515 43.0836C74.3064 42.9211 74.2297 42.7692 74.1259 42.6364C74.0221 42.5037 73.8931 42.3927 73.7464 42.3099C73.5997 42.2271 73.4381 42.174 73.2709 42.1538C73.1037 42.1336 72.9342 42.1465 72.772 42.192L58.6956 46.1342L57.1797 46.5588H66.6996L68.2155 46.1342L73.4632 44.6652C73.7903 44.5732 74.0676 44.3549 74.2341 44.0584C74.4007 43.7619 74.4429 43.4113 74.3515 43.0836Z" fill="#CCCCCC" fill-opacity="0.4"/>
<path d="M64.3933 40.1382C64.3016 39.8105 64.0836 39.5327 63.7874 39.3659C63.4912 39.1991 63.1409 39.157 62.8137 39.2487L41.6918 45.1631C41.3967 45.2469 41.1411 45.4334 40.9712 45.6892C40.8013 45.9449 40.7283 46.253 40.7652 46.5579H46.2334L47.7514 46.1333L63.5049 41.7219C63.8323 41.6296 64.1097 41.4109 64.2763 41.114C64.4428 40.8171 64.4849 40.4661 64.3933 40.1382Z" fill="#CCCCCC" fill-opacity="0.4"/>
<path d="M118.771 46.1328H16.3631C15.9696 46.1333 15.5923 46.29 15.3141 46.5686C15.0359 46.8471 14.8793 47.2249 14.8789 47.6189V108.335C14.8793 108.729 15.0358 109.106 15.3141 109.385C15.5923 109.664 15.9696 109.82 16.3631 109.821H118.771C119.165 109.82 119.542 109.664 119.82 109.385C120.098 109.106 120.255 108.729 120.255 108.335V47.6189C120.255 47.2249 120.098 46.8472 119.82 46.5686C119.542 46.29 119.165 46.1333 118.771 46.1328ZM119.831 108.335C119.831 108.616 119.719 108.886 119.521 109.085C119.322 109.284 119.052 109.396 118.771 109.396H16.3631C16.0819 109.396 15.8124 109.284 15.6136 109.085C15.4148 108.886 15.3031 108.616 15.303 108.335V47.6189C15.3031 47.3374 15.4148 47.0675 15.6136 46.8684C15.8124 46.6694 16.082 46.5575 16.3631 46.5574H118.771C119.052 46.5575 119.322 46.6694 119.521 46.8684C119.719 47.0675 119.831 47.3374 119.831 47.6189V108.335Z" fill="#3F3D56" fill-opacity="0.4"/>
<path d="M26.3255 54.4134C25.8223 54.4134 25.3304 54.264 24.912 53.9841C24.4936 53.7041 24.1675 53.3063 23.9749 52.8408C23.7824 52.3753 23.732 51.8631 23.8301 51.3689C23.9283 50.8747 24.1706 50.4208 24.5265 50.0645C24.8823 49.7082 25.3356 49.4656 25.8292 49.3673C26.3227 49.269 26.8343 49.3195 27.2992 49.5123C27.7641 49.7051 28.1615 50.0316 28.4411 50.4505C28.7206 50.8695 28.8698 51.362 28.8698 51.8659C28.8691 52.5413 28.6008 53.1888 28.1238 53.6664C27.6468 54.144 27.0001 54.4126 26.3255 54.4134ZM26.3255 49.7429C25.9062 49.7429 25.4963 49.8675 25.1476 50.1007C24.7989 50.334 24.5272 50.6656 24.3667 51.0535C24.2062 51.4414 24.1642 51.8682 24.246 52.28C24.3279 52.6918 24.5298 53.0701 24.8263 53.367C25.1228 53.6639 25.5006 53.8661 25.9119 53.948C26.3232 54.0299 26.7495 53.9879 27.1369 53.8272C27.5244 53.6665 27.8555 53.3944 28.0885 53.0453C28.3214 52.6962 28.4458 52.2857 28.4458 51.8659C28.4452 51.303 28.2216 50.7634 27.8241 50.3654C27.4266 49.9675 26.8877 49.7436 26.3255 49.7429Z" fill="#FF0004" fill-opacity="0.4"/>
<path d="M22.3708 51.8665C22.3708 51.3805 22.5223 50.9067 22.804 50.511C23.0857 50.1153 23.4837 49.8175 23.9425 49.6589C23.5912 49.5376 23.216 49.502 22.8482 49.5553C22.4805 49.6085 22.1307 49.7489 21.8281 49.9649C21.5255 50.1809 21.2788 50.4662 21.1086 50.7969C20.9384 51.1277 20.8496 51.4944 20.8496 51.8665C20.8496 52.2386 20.9384 52.6053 21.1086 52.936C21.2788 53.2668 21.5255 53.552 21.8281 53.768C22.1307 53.984 22.4805 54.1244 22.8482 54.1777C23.216 54.2309 23.5912 54.1954 23.9425 54.074C23.4837 53.9155 23.0857 53.6176 22.804 53.2219C22.5223 52.8262 22.3708 52.3524 22.3708 51.8665Z" fill="#FF0004" fill-opacity="0.4"/>
<path d="M36.6406 81.9633C36.1347 81.9628 35.6497 81.7613 35.292 81.4031C34.9342 81.0449 34.733 80.5593 34.7324 80.0527V74.3208C34.7324 73.8141 34.9335 73.3281 35.2913 72.9698C35.6492 72.6115 36.1346 72.4102 36.6406 72.4102C37.1467 72.4102 37.6321 72.6115 37.99 72.9698C38.3478 73.3281 38.5489 73.8141 38.5489 74.3208V80.0527C38.5483 80.5593 38.3471 81.0449 37.9893 81.4031C37.6316 81.7613 37.1466 81.9628 36.6406 81.9633Z" fill="#FF0004" fill-opacity="0.4"/>
<path d="M41.7285 81.9633C41.2226 81.9628 40.7376 81.7613 40.3799 81.4031C40.0221 81.0449 39.8209 80.5593 39.8203 80.0527V74.3208C39.8203 73.8141 40.0214 73.3281 40.3792 72.9698C40.7371 72.6115 41.2224 72.4102 41.7285 72.4102C42.2346 72.4102 42.72 72.6115 43.0778 72.9698C43.4357 73.3281 43.6368 73.8141 43.6368 74.3208V80.0527C43.6362 80.5593 43.4349 81.0449 43.0772 81.4031C42.7195 81.7613 42.2344 81.9628 41.7285 81.9633Z" fill="#FF0004" fill-opacity="0.4"/>
<path d="M46.8164 81.9633C46.3105 81.9628 45.8255 81.7613 45.4678 81.4031C45.11 81.0449 44.9088 80.5593 44.9082 80.0527V74.3208C44.9082 73.8141 45.1092 73.3281 45.4671 72.9698C45.825 72.6115 46.3103 72.4102 46.8164 72.4102C47.3225 72.4102 47.8079 72.6115 48.1657 72.9698C48.5236 73.3281 48.7247 73.8141 48.7247 74.3208V80.0527C48.7241 80.5593 48.5228 81.0449 48.1651 81.4031C47.8074 81.7613 47.3223 81.9628 46.8164 81.9633Z" fill="#FF0004" fill-opacity="0.4"/>
<path d="M54.6621 81.9633C54.1562 81.9628 53.6712 81.7613 53.3135 81.4031C52.9557 81.0449 52.7545 80.5593 52.7539 80.0527V74.3208C52.7539 73.8141 52.955 73.3281 53.3128 72.9698C53.6707 72.6115 54.156 72.4102 54.6621 72.4102C55.1682 72.4102 55.6536 72.6115 56.0114 72.9698C56.3693 73.3281 56.5704 73.8141 56.5704 74.3208V80.0527C56.5698 80.5593 56.3685 81.0449 56.0108 81.4031C55.6531 81.7613 55.168 81.9628 54.6621 81.9633Z" fill="#FF0004" fill-opacity="0.4"/>
<path d="M59.75 81.9633C59.2441 81.9628 58.7591 81.7613 58.4014 81.4031C58.0436 81.0449 57.8424 80.5593 57.8418 80.0527V74.3208C57.8418 73.8141 58.0428 73.3281 58.4007 72.9698C58.7586 72.6115 59.2439 72.4102 59.75 72.4102C60.2561 72.4102 60.7415 72.6115 61.0993 72.9698C61.4572 73.3281 61.6582 73.8141 61.6582 74.3208V80.0527C61.6577 80.5593 61.4564 81.0449 61.0987 81.4031C60.741 81.7613 60.2559 81.9628 59.75 81.9633Z" fill="#FF0004" fill-opacity="0.4"/>
<path d="M64.8399 81.9633C64.3339 81.9628 63.8489 81.7613 63.4912 81.4031C63.1335 81.0449 62.9322 80.5593 62.9316 80.0527V74.3208C62.9316 73.8141 63.1327 73.3281 63.4905 72.9698C63.8484 72.6115 64.3338 72.4102 64.8399 72.4102C65.346 72.4102 65.8313 72.6115 66.1892 72.9698C66.547 73.3281 66.7481 73.8141 66.7481 74.3208V80.0527C66.7475 80.5593 66.5463 81.0449 66.1885 81.4031C65.8308 81.7613 65.3458 81.9628 64.8399 81.9633Z" fill="#FF0004" fill-opacity="0.4"/>
<path d="M72.6836 81.9633C72.1777 81.9628 71.6927 81.7613 71.3349 81.4031C70.9772 81.0449 70.776 80.5593 70.7754 80.0527V74.3208C70.7754 73.8141 70.9764 73.3281 71.3343 72.9698C71.6922 72.6115 72.1775 72.4102 72.6836 72.4102C73.1897 72.4102 73.6751 72.6115 74.0329 72.9698C74.3908 73.3281 74.5918 73.8141 74.5918 74.3208V80.0527C74.5913 80.5593 74.39 81.0449 74.0323 81.4031C73.6746 81.7613 73.1895 81.9628 72.6836 81.9633Z" fill="#FF0004" fill-opacity="0.4"/>
<path d="M77.7735 81.9633C77.2675 81.9628 76.7825 81.7613 76.4248 81.4031C76.0671 81.0449 75.8658 80.5593 75.8652 80.0527V74.3208C75.8652 73.8141 76.0663 73.3281 76.4241 72.9698C76.782 72.6115 77.2674 72.4102 77.7735 72.4102C78.2796 72.4102 78.7649 72.6115 79.1228 72.9698C79.4806 73.3281 79.6817 73.8141 79.6817 74.3208V80.0527C79.6811 80.5593 79.4799 81.0449 79.1221 81.4031C78.7644 81.7613 78.2794 81.9628 77.7735 81.9633Z" fill="#FF0004" fill-opacity="0.4"/>
<path d="M82.8613 81.9633C82.3554 81.9628 81.8704 81.7613 81.5127 81.4031C81.1549 81.0449 80.9537 80.5593 80.9531 80.0527V74.3208C80.9531 73.8141 81.1542 73.3281 81.512 72.9698C81.8699 72.6115 82.3553 72.4102 82.8613 72.4102C83.3674 72.4102 83.8528 72.6115 84.2107 72.9698C84.5685 73.3281 84.7696 73.8141 84.7696 74.3208V80.0527C84.769 80.5593 84.5678 81.0449 84.21 81.4031C83.8523 81.7613 83.3673 81.9628 82.8613 81.9633Z" fill="#FF0004" fill-opacity="0.4"/>
<path d="M90.7051 81.9633C90.1992 81.9628 89.7142 81.7613 89.3564 81.4031C88.9987 81.0449 88.7975 80.5593 88.7969 80.0527V74.3208C88.7969 73.8141 88.9979 73.3281 89.3558 72.9698C89.7136 72.6115 90.199 72.4102 90.7051 72.4102C91.2112 72.4102 91.6966 72.6115 92.0544 72.9698C92.4123 73.3281 92.6133 73.8141 92.6133 74.3208V80.0527C92.6127 80.5593 92.4115 81.0449 92.0538 81.4031C91.696 81.7613 91.211 81.9628 90.7051 81.9633Z" fill="#FF0004" fill-opacity="0.4"/>
<path d="M95.7949 81.9633C95.289 81.9628 94.804 81.7613 94.4463 81.4031C94.0885 81.0449 93.8873 80.5593 93.8867 80.0527V74.3208C93.8867 73.8141 94.0878 73.3281 94.4456 72.9698C94.8035 72.6115 95.2889 72.4102 95.7949 72.4102C96.301 72.4102 96.7864 72.6115 97.1443 72.9698C97.5021 73.3281 97.7032 73.8141 97.7032 74.3208V80.0527C97.7026 80.5593 97.5014 81.0449 97.1436 81.4031C96.7859 81.7613 96.3009 81.9628 95.7949 81.9633Z" fill="#FF0004" fill-opacity="0.4"/>
<path d="M100.885 81.9633C100.379 81.9628 99.8939 81.7613 99.5361 81.4031C99.1784 81.0449 98.9771 80.5593 98.9766 80.0527V74.3208C98.9766 73.8141 99.1776 73.3281 99.5355 72.9698C99.8933 72.6115 100.379 72.4102 100.885 72.4102C101.391 72.4102 101.876 72.6115 102.234 72.9698C102.592 73.3281 102.793 73.8141 102.793 74.3208V80.0527C102.792 80.5593 102.591 81.0449 102.233 81.4031C101.876 81.7613 101.391 81.9628 100.885 81.9633Z" fill="#FF0004" fill-opacity="0.4"/>
<path d="M49.5783 103.23H22.1338C21.7937 103.23 21.4676 103.094 21.2271 102.854C20.9867 102.613 20.8516 102.286 20.8516 101.946C20.8516 101.605 20.9867 101.279 21.2271 101.038C21.4676 100.797 21.7937 100.662 22.1338 100.662H49.5783C49.9184 100.662 50.2445 100.797 50.485 101.038C50.7254 101.279 50.8605 101.605 50.8605 101.946C50.8605 102.286 50.7254 102.613 50.485 102.854C50.2445 103.094 49.9184 103.23 49.5783 103.23Z" fill="#E6E6E6" fill-opacity="0.4"/>
<path d="M40.7771 97.7082H30.9306C30.5906 97.7082 30.2644 97.573 30.024 97.3322C29.7835 97.0915 29.6484 96.7649 29.6484 96.4244C29.6484 96.0839 29.7835 95.7574 30.024 95.5166C30.2644 95.2759 30.5906 95.1406 30.9306 95.1406H40.7771C41.1172 95.1406 41.4433 95.2759 41.6838 95.5166C41.9242 95.7574 42.0593 96.0839 42.0593 96.4244C42.0593 96.7649 41.9242 97.0915 41.6838 97.3322C41.4433 97.573 41.1172 97.7082 40.7771 97.7082Z" fill="#E6E6E6" fill-opacity="0.4"/>
<path d="M119.753 58.8242H15.2246V59.2488H119.753V58.8242Z" fill="#3F3D56" fill-opacity="0.4"/>
</svg>
